# xmcd
#
# Track frame offsets: 
#        150
#        16054
#        34464
#        54712
#        72154
#        90319
#        108730
#        125958
#        141772
#        156673
#        177573
#        196263
#        212781
#        228941
#        249255
#        266197
#
# Disc length: 3835 seconds
#
# Revision: 0
# Processed by: cddbd v1.5.2PL0 Copyright (c) Steve Scherf et al.
# Submitted via: ExactAudioCopyFreeDBPlugin 1.0
#
DISCID=f10ef910
DTITLE=รวมศิลปิน - รวมฮิต ผู้ชายเดินดิน
DYEAR=1900
DGENRE=
TTITLE0=ไชโย ธนาวัฒน์ - หิ่งห้อยกับตะวัน
TTITLE1=กล้วย แสตมป์ - ศาลาพักใจ
TTITLE2=เสถียร ทำมือ - เหงาใช่ไหมจะไปหา
TTITLE3=โกไข่ กับ นายสน - ความคิดถึงกำลังเดินทาง
TTITLE4=พี สะเดิด - คิดถึง คิดถึง
TTITLE5=เดช อิสระ - รักแท้แพ้แด๊ช
TTITLE6=โกไข่ กับ นายสน - น้ำตาแด๊ช
TTITLE7=กิตติศักดิ์ ไชยชนะ - อยู่ใกล้ก็หวง อยู่ใกลก็ห่วง
TTITLE8=ไชโย ธนาวัฒน์ - ไอ้หนุ่มหน้าบ้าน
TTITLE9=เสถียร ทำมือ - เจ็บเมื่อไหร่ก็โทรมา
TTITLE10=พี สะเดิด - รักคนโทรมจังเลย
TTITLE11=กล้วย แสตมป์ - รักสามเศร้า
TTITLE12=กิตติศักดิ์ ไชยชนะ - ละครรักสามเส้า
TTITLE13=เสถียร ทำมือ - กำลังใจที่เธอไม่รู้
TTITLE14=ไชโย ธนาวัฒน์ - ไอ้หนุ่มเมืองเพชร
TTITLE15=พี สะเดิด - ความต้องการทางแพทย์สูง
EXTD=
EXTT0=
EXTT1=
EXTT2=
EXTT3=
EXTT4=
EXTT5=
EXTT6=
EXTT7=
EXTT8=
EXTT9=
EXTT10=
EXTT11=
EXTT12=
EXTT13=
EXTT14=
EXTT15=
PLAYORDER=
